<mxfile host="Electron" agent="Mozilla/5.0 (Macintosh; Intel Mac OS X 10_15_7) AppleWebKit/537.36 (KHTML, like Gecko) draw.io/28.0.6 Chrome/138.0.7204.100 Electron/37.2.3 Safari/537.36" version="28.0.6">
  <diagram name="Page-1" id="Sn3ouR6_pgFDpvM0Edwg">
    <mxGraphModel dx="1426" dy="774" grid="1" gridSize="10" guides="1" tooltips="1" connect="1" arrows="1" fold="1" page="1" pageScale="1" pageWidth="1169" pageHeight="827" background="#ffffff" math="0" shadow="0">
      <root>
        <mxCell id="0" />
        <mxCell id="1" parent="0" />
        <mxCell id="9mqMH0u8qnxwxV-YiKMf-15" value="" style="endArrow=none;html=1;rounded=0;" edge="1" parent="1">
          <mxGeometry width="50" height="50" relative="1" as="geometry">
            <mxPoint x="540" y="158" as="sourcePoint" />
            <mxPoint x="730" y="158" as="targetPoint" />
          </mxGeometry>
        </mxCell>
        <mxCell id="9mqMH0u8qnxwxV-YiKMf-37" value="" style="endArrow=none;html=1;rounded=0;" edge="1" parent="1">
          <mxGeometry width="50" height="50" relative="1" as="geometry">
            <mxPoint x="440" y="288" as="sourcePoint" />
            <mxPoint x="712.5" y="288" as="targetPoint" />
          </mxGeometry>
        </mxCell>
        <mxCell id="9mqMH0u8qnxwxV-YiKMf-43" value="&lt;span style=&quot;color: rgb(71, 71, 71); font-family: Arial, sans-serif; font-size: 14px; text-align: start; text-wrap-mode: wrap; background-color: rgb(255, 255, 255);&quot;&gt;×&lt;/span&gt;" style="text;html=1;align=center;verticalAlign=middle;resizable=0;points=[];autosize=1;strokeColor=none;fillColor=none;" vertex="1" parent="1">
          <mxGeometry x="540" y="118" width="30" height="30" as="geometry" />
        </mxCell>
        <mxCell id="9mqMH0u8qnxwxV-YiKMf-49" value="8" style="text;html=1;align=center;verticalAlign=middle;resizable=0;points=[];autosize=1;strokeColor=none;fillColor=none;" vertex="1" parent="1">
          <mxGeometry x="625" y="298" width="30" height="30" as="geometry" />
        </mxCell>
        <mxCell id="9mqMH0u8qnxwxV-YiKMf-50" value="4" style="text;html=1;align=center;verticalAlign=middle;resizable=0;points=[];autosize=1;strokeColor=none;fillColor=none;" vertex="1" parent="1">
          <mxGeometry x="635" y="306" width="30" height="30" as="geometry" />
        </mxCell>
        <mxCell id="9mqMH0u8qnxwxV-YiKMf-55" value="5" style="text;html=1;align=center;verticalAlign=middle;resizable=0;points=[];autosize=1;strokeColor=none;fillColor=none;container=1;" vertex="1" parent="1">
          <mxGeometry x="490" y="298" width="30" height="30" as="geometry" />
        </mxCell>
        <mxCell id="9mqMH0u8qnxwxV-YiKMf-56" value="1" style="text;html=1;align=center;verticalAlign=middle;resizable=0;points=[];autosize=1;strokeColor=none;fillColor=none;" vertex="1" parent="1">
          <mxGeometry x="500" y="306" width="30" height="30" as="geometry" />
        </mxCell>
        <mxCell id="9mqMH0u8qnxwxV-YiKMf-57" value="6" style="text;html=1;align=center;verticalAlign=middle;resizable=0;points=[];autosize=1;strokeColor=none;fillColor=none;" vertex="1" parent="1">
          <mxGeometry x="530.5" y="298" width="30" height="30" as="geometry" />
        </mxCell>
        <mxCell id="9mqMH0u8qnxwxV-YiKMf-58" value="2" style="text;html=1;align=center;verticalAlign=middle;resizable=0;points=[];autosize=1;strokeColor=none;fillColor=none;container=1;" vertex="1" parent="1">
          <mxGeometry x="540.5" y="306" width="30" height="30" as="geometry" />
        </mxCell>
        <mxCell id="9mqMH0u8qnxwxV-YiKMf-60" value="" style="group" vertex="1" connectable="0" parent="1">
          <mxGeometry x="450" y="298" width="40" height="38" as="geometry" />
        </mxCell>
        <mxCell id="9mqMH0u8qnxwxV-YiKMf-53" value="0" style="text;html=1;align=center;verticalAlign=middle;resizable=0;points=[];autosize=1;strokeColor=none;fillColor=none;" vertex="1" parent="9mqMH0u8qnxwxV-YiKMf-60">
          <mxGeometry width="30" height="30" as="geometry" />
        </mxCell>
        <mxCell id="9mqMH0u8qnxwxV-YiKMf-54" value="0" style="text;html=1;align=center;verticalAlign=middle;resizable=0;points=[];autosize=1;strokeColor=none;fillColor=none;" vertex="1" parent="9mqMH0u8qnxwxV-YiKMf-60">
          <mxGeometry x="10" y="8" width="30" height="30" as="geometry" />
        </mxCell>
        <mxCell id="9mqMH0u8qnxwxV-YiKMf-61" value="" style="group" vertex="1" connectable="0" parent="1">
          <mxGeometry x="580" y="298" width="40" height="38" as="geometry" />
        </mxCell>
        <mxCell id="9mqMH0u8qnxwxV-YiKMf-47" value="0" style="text;html=1;align=center;verticalAlign=middle;resizable=0;points=[];autosize=1;strokeColor=none;fillColor=none;" vertex="1" parent="9mqMH0u8qnxwxV-YiKMf-61">
          <mxGeometry width="30" height="30" as="geometry" />
        </mxCell>
        <mxCell id="9mqMH0u8qnxwxV-YiKMf-48" value="3" style="text;html=1;align=center;verticalAlign=middle;resizable=0;points=[];autosize=1;strokeColor=none;fillColor=none;" vertex="1" parent="9mqMH0u8qnxwxV-YiKMf-61">
          <mxGeometry x="10" y="8" width="30" height="30" as="geometry" />
        </mxCell>
        <mxCell id="9mqMH0u8qnxwxV-YiKMf-62" value="" style="group" vertex="1" connectable="0" parent="1">
          <mxGeometry x="671" y="298" width="40" height="38" as="geometry" />
        </mxCell>
        <mxCell id="9mqMH0u8qnxwxV-YiKMf-51" value="8" style="text;html=1;align=center;verticalAlign=middle;resizable=0;points=[];autosize=1;strokeColor=none;fillColor=none;" vertex="1" parent="9mqMH0u8qnxwxV-YiKMf-62">
          <mxGeometry width="30" height="30" as="geometry" />
        </mxCell>
        <mxCell id="9mqMH0u8qnxwxV-YiKMf-52" value="5" style="text;html=1;align=center;verticalAlign=middle;resizable=0;points=[];autosize=1;strokeColor=none;fillColor=none;" vertex="1" parent="9mqMH0u8qnxwxV-YiKMf-62">
          <mxGeometry x="10" y="8" width="30" height="30" as="geometry" />
        </mxCell>
        <mxCell id="9mqMH0u8qnxwxV-YiKMf-63" value="" style="group" vertex="1" connectable="0" parent="1">
          <mxGeometry x="580" y="80" width="40" height="38" as="geometry" />
        </mxCell>
        <mxCell id="9mqMH0u8qnxwxV-YiKMf-1" value="1" style="text;html=1;align=center;verticalAlign=middle;resizable=0;points=[];autosize=1;strokeColor=none;fillColor=none;" vertex="1" parent="9mqMH0u8qnxwxV-YiKMf-63">
          <mxGeometry width="30" height="30" as="geometry" />
        </mxCell>
        <mxCell id="9mqMH0u8qnxwxV-YiKMf-4" value="0" style="text;html=1;align=center;verticalAlign=middle;resizable=0;points=[];autosize=1;strokeColor=none;fillColor=none;" vertex="1" parent="9mqMH0u8qnxwxV-YiKMf-63">
          <mxGeometry x="10" y="8" width="30" height="30" as="geometry" />
        </mxCell>
        <mxCell id="9mqMH0u8qnxwxV-YiKMf-64" value="" style="group" vertex="1" connectable="0" parent="1">
          <mxGeometry x="625" y="80" width="40" height="38" as="geometry" />
        </mxCell>
        <mxCell id="9mqMH0u8qnxwxV-YiKMf-5" value="2" style="text;html=1;align=center;verticalAlign=middle;resizable=0;points=[];autosize=1;strokeColor=none;fillColor=none;" vertex="1" parent="9mqMH0u8qnxwxV-YiKMf-64">
          <mxGeometry width="30" height="30" as="geometry" />
        </mxCell>
        <mxCell id="9mqMH0u8qnxwxV-YiKMf-6" value="1" style="text;html=1;align=center;verticalAlign=middle;resizable=0;points=[];autosize=1;strokeColor=none;fillColor=none;" vertex="1" parent="9mqMH0u8qnxwxV-YiKMf-64">
          <mxGeometry x="10" y="8" width="30" height="30" as="geometry" />
        </mxCell>
        <mxCell id="9mqMH0u8qnxwxV-YiKMf-65" value="" style="group" vertex="1" connectable="0" parent="1">
          <mxGeometry x="671" y="80" width="40" height="38" as="geometry" />
        </mxCell>
        <mxCell id="9mqMH0u8qnxwxV-YiKMf-7" value="3" style="text;html=1;align=center;verticalAlign=middle;resizable=0;points=[];autosize=1;strokeColor=none;fillColor=none;" vertex="1" parent="9mqMH0u8qnxwxV-YiKMf-65">
          <mxGeometry width="30" height="30" as="geometry" />
        </mxCell>
        <mxCell id="9mqMH0u8qnxwxV-YiKMf-8" value="2" style="text;html=1;align=center;verticalAlign=middle;resizable=0;points=[];autosize=1;strokeColor=none;fillColor=none;" vertex="1" parent="9mqMH0u8qnxwxV-YiKMf-65">
          <mxGeometry x="10" y="8" width="30" height="30" as="geometry" />
        </mxCell>
        <mxCell id="9mqMH0u8qnxwxV-YiKMf-66" value="" style="group" vertex="1" connectable="0" parent="1">
          <mxGeometry x="670" y="118" width="40" height="38" as="geometry" />
        </mxCell>
        <mxCell id="9mqMH0u8qnxwxV-YiKMf-13" value="6" style="text;html=1;align=center;verticalAlign=middle;resizable=0;points=[];autosize=1;strokeColor=none;fillColor=none;" vertex="1" parent="9mqMH0u8qnxwxV-YiKMf-66">
          <mxGeometry width="30" height="30" as="geometry" />
        </mxCell>
        <mxCell id="9mqMH0u8qnxwxV-YiKMf-14" value="2" style="text;html=1;align=center;verticalAlign=middle;resizable=0;points=[];autosize=1;strokeColor=none;fillColor=none;" vertex="1" parent="9mqMH0u8qnxwxV-YiKMf-66">
          <mxGeometry x="10" y="8" width="30" height="30" as="geometry" />
        </mxCell>
        <mxCell id="9mqMH0u8qnxwxV-YiKMf-67" value="" style="group" vertex="1" connectable="0" parent="1">
          <mxGeometry x="625" y="118" width="40" height="38" as="geometry" />
        </mxCell>
        <mxCell id="9mqMH0u8qnxwxV-YiKMf-11" value="5" style="text;html=1;align=center;verticalAlign=middle;resizable=0;points=[];autosize=1;strokeColor=none;fillColor=none;" vertex="1" parent="9mqMH0u8qnxwxV-YiKMf-67">
          <mxGeometry width="30" height="30" as="geometry" />
        </mxCell>
        <mxCell id="9mqMH0u8qnxwxV-YiKMf-12" value="1" style="text;html=1;align=center;verticalAlign=middle;resizable=0;points=[];autosize=1;strokeColor=none;fillColor=none;" vertex="1" parent="9mqMH0u8qnxwxV-YiKMf-67">
          <mxGeometry x="10" y="8" width="30" height="30" as="geometry" />
        </mxCell>
        <mxCell id="9mqMH0u8qnxwxV-YiKMf-68" value="" style="group" vertex="1" connectable="0" parent="1">
          <mxGeometry x="580" y="118" width="40" height="38" as="geometry" />
        </mxCell>
        <mxCell id="9mqMH0u8qnxwxV-YiKMf-9" value="4" style="text;html=1;align=center;verticalAlign=middle;resizable=0;points=[];autosize=1;strokeColor=none;fillColor=none;" vertex="1" parent="9mqMH0u8qnxwxV-YiKMf-68">
          <mxGeometry width="30" height="30" as="geometry" />
        </mxCell>
        <mxCell id="9mqMH0u8qnxwxV-YiKMf-10" value="0" style="text;html=1;align=center;verticalAlign=middle;resizable=0;points=[];autosize=1;strokeColor=none;fillColor=none;" vertex="1" parent="9mqMH0u8qnxwxV-YiKMf-68">
          <mxGeometry x="10" y="8" width="30" height="30" as="geometry" />
        </mxCell>
        <mxCell id="9mqMH0u8qnxwxV-YiKMf-69" value="" style="group" vertex="1" connectable="0" parent="1">
          <mxGeometry x="580" y="168" width="54" height="38" as="geometry" />
        </mxCell>
        <mxCell id="9mqMH0u8qnxwxV-YiKMf-16" value="7" style="text;html=1;align=center;verticalAlign=middle;resizable=0;points=[];autosize=1;strokeColor=none;fillColor=none;" vertex="1" parent="9mqMH0u8qnxwxV-YiKMf-69">
          <mxGeometry width="30" height="30" as="geometry" />
        </mxCell>
        <mxCell id="9mqMH0u8qnxwxV-YiKMf-17" value="(0,2)" style="text;html=1;align=center;verticalAlign=middle;resizable=0;points=[];autosize=1;strokeColor=none;fillColor=none;" vertex="1" parent="9mqMH0u8qnxwxV-YiKMf-69">
          <mxGeometry x="4" y="8" width="50" height="30" as="geometry" />
        </mxCell>
        <mxCell id="9mqMH0u8qnxwxV-YiKMf-70" value="" style="group" vertex="1" connectable="0" parent="1">
          <mxGeometry x="625" y="168" width="56" height="38" as="geometry" />
        </mxCell>
        <mxCell id="9mqMH0u8qnxwxV-YiKMf-18" value="3" style="text;html=1;align=center;verticalAlign=middle;resizable=0;points=[];autosize=1;strokeColor=none;fillColor=none;" vertex="1" parent="9mqMH0u8qnxwxV-YiKMf-70">
          <mxGeometry width="30" height="30" as="geometry" />
        </mxCell>
        <mxCell id="9mqMH0u8qnxwxV-YiKMf-19" value="(1,2)" style="text;html=1;align=center;verticalAlign=middle;resizable=0;points=[];autosize=1;strokeColor=none;fillColor=none;" vertex="1" parent="9mqMH0u8qnxwxV-YiKMf-70">
          <mxGeometry x="6" y="8" width="50" height="30" as="geometry" />
        </mxCell>
        <mxCell id="9mqMH0u8qnxwxV-YiKMf-71" value="" style="group" vertex="1" connectable="0" parent="1">
          <mxGeometry x="670" y="168" width="57" height="38" as="geometry" />
        </mxCell>
        <mxCell id="9mqMH0u8qnxwxV-YiKMf-20" value="8" style="text;html=1;align=center;verticalAlign=middle;resizable=0;points=[];autosize=1;strokeColor=none;fillColor=none;" vertex="1" parent="9mqMH0u8qnxwxV-YiKMf-71">
          <mxGeometry width="30" height="30" as="geometry" />
        </mxCell>
        <mxCell id="9mqMH0u8qnxwxV-YiKMf-21" value="(2,2)" style="text;html=1;align=center;verticalAlign=middle;resizable=0;points=[];autosize=1;strokeColor=none;fillColor=none;" vertex="1" parent="9mqMH0u8qnxwxV-YiKMf-71">
          <mxGeometry x="7" y="8" width="50" height="30" as="geometry" />
        </mxCell>
        <mxCell id="9mqMH0u8qnxwxV-YiKMf-72" value="" style="group" vertex="1" connectable="0" parent="1">
          <mxGeometry x="530.5" y="208" width="57" height="38" as="geometry" />
        </mxCell>
        <mxCell id="9mqMH0u8qnxwxV-YiKMf-25" value="6" style="text;html=1;align=center;verticalAlign=middle;resizable=0;points=[];autosize=1;strokeColor=none;fillColor=none;" vertex="1" parent="9mqMH0u8qnxwxV-YiKMf-72">
          <mxGeometry width="30" height="30" as="geometry" />
        </mxCell>
        <mxCell id="9mqMH0u8qnxwxV-YiKMf-26" value="(0,1)" style="text;html=1;align=center;verticalAlign=middle;resizable=0;points=[];autosize=1;strokeColor=none;fillColor=none;" vertex="1" parent="9mqMH0u8qnxwxV-YiKMf-72">
          <mxGeometry x="7" y="8" width="50" height="30" as="geometry" />
        </mxCell>
        <mxCell id="9mqMH0u8qnxwxV-YiKMf-73" value="" style="group" vertex="1" connectable="0" parent="1">
          <mxGeometry x="490" y="248" width="58" height="38" as="geometry" />
        </mxCell>
        <mxCell id="9mqMH0u8qnxwxV-YiKMf-31" value="4" style="text;html=1;align=center;verticalAlign=middle;resizable=0;points=[];autosize=1;strokeColor=none;fillColor=none;" vertex="1" parent="9mqMH0u8qnxwxV-YiKMf-73">
          <mxGeometry width="30" height="30" as="geometry" />
        </mxCell>
        <mxCell id="9mqMH0u8qnxwxV-YiKMf-32" value="(0,0)" style="text;html=1;align=center;verticalAlign=middle;resizable=0;points=[];autosize=1;strokeColor=none;fillColor=none;" vertex="1" parent="9mqMH0u8qnxwxV-YiKMf-73">
          <mxGeometry x="8" y="8" width="50" height="30" as="geometry" />
        </mxCell>
        <mxCell id="9mqMH0u8qnxwxV-YiKMf-74" value="" style="group" vertex="1" connectable="0" parent="1">
          <mxGeometry x="622" y="208" width="57" height="38" as="geometry" />
        </mxCell>
        <mxCell id="9mqMH0u8qnxwxV-YiKMf-29" value="5" style="text;html=1;align=center;verticalAlign=middle;resizable=0;points=[];autosize=1;strokeColor=none;fillColor=none;" vertex="1" parent="9mqMH0u8qnxwxV-YiKMf-74">
          <mxGeometry width="30" height="30" as="geometry" />
        </mxCell>
        <mxCell id="9mqMH0u8qnxwxV-YiKMf-30" value="(2,1)" style="text;html=1;align=center;verticalAlign=middle;resizable=0;points=[];autosize=1;strokeColor=none;fillColor=none;" vertex="1" parent="9mqMH0u8qnxwxV-YiKMf-74">
          <mxGeometry x="7" y="8" width="50" height="30" as="geometry" />
        </mxCell>
        <mxCell id="9mqMH0u8qnxwxV-YiKMf-75" value="" style="group" vertex="1" connectable="0" parent="1">
          <mxGeometry x="580" y="248" width="57" height="38" as="geometry" />
        </mxCell>
        <mxCell id="9mqMH0u8qnxwxV-YiKMf-35" value="2" style="text;html=1;align=center;verticalAlign=middle;resizable=0;points=[];autosize=1;strokeColor=none;fillColor=none;" vertex="1" parent="9mqMH0u8qnxwxV-YiKMf-75">
          <mxGeometry width="30" height="30" as="geometry" />
        </mxCell>
        <mxCell id="9mqMH0u8qnxwxV-YiKMf-36" value="(2,0)" style="text;html=1;align=center;verticalAlign=middle;resizable=0;points=[];autosize=1;strokeColor=none;fillColor=none;" vertex="1" parent="9mqMH0u8qnxwxV-YiKMf-75">
          <mxGeometry x="7" y="8" width="50" height="30" as="geometry" />
        </mxCell>
        <mxCell id="9mqMH0u8qnxwxV-YiKMf-76" value="" style="group" vertex="1" connectable="0" parent="1">
          <mxGeometry x="530.5" y="248" width="56" height="38" as="geometry" />
        </mxCell>
        <mxCell id="9mqMH0u8qnxwxV-YiKMf-33" value="9" style="text;html=1;align=center;verticalAlign=middle;resizable=0;points=[];autosize=1;strokeColor=none;fillColor=none;" vertex="1" parent="9mqMH0u8qnxwxV-YiKMf-76">
          <mxGeometry width="30" height="30" as="geometry" />
        </mxCell>
        <mxCell id="9mqMH0u8qnxwxV-YiKMf-34" value="(1,0)" style="text;html=1;align=center;verticalAlign=middle;resizable=0;points=[];autosize=1;strokeColor=none;fillColor=none;" vertex="1" parent="9mqMH0u8qnxwxV-YiKMf-76">
          <mxGeometry x="6" y="8" width="50" height="30" as="geometry" />
        </mxCell>
        <mxCell id="9mqMH0u8qnxwxV-YiKMf-77" value="" style="group" vertex="1" connectable="0" parent="1">
          <mxGeometry x="580" y="208" width="57" height="38" as="geometry" />
        </mxCell>
        <mxCell id="9mqMH0u8qnxwxV-YiKMf-27" value="1" style="text;html=1;align=center;verticalAlign=middle;resizable=0;points=[];autosize=1;strokeColor=none;fillColor=none;" vertex="1" parent="9mqMH0u8qnxwxV-YiKMf-77">
          <mxGeometry width="30" height="30" as="geometry" />
        </mxCell>
        <mxCell id="9mqMH0u8qnxwxV-YiKMf-28" value="(1,1)" style="text;html=1;align=center;verticalAlign=middle;resizable=0;points=[];autosize=1;strokeColor=none;fillColor=none;" vertex="1" parent="9mqMH0u8qnxwxV-YiKMf-77">
          <mxGeometry x="7" y="8" width="50" height="30" as="geometry" />
        </mxCell>
        <mxCell id="9mqMH0u8qnxwxV-YiKMf-78" value="竖式模拟乘法：&lt;div&gt;本题如果根据原始的模拟求解，需要先求解乘积，再对中间结果进行加法模拟求和，并且需要对中间结果进行相应倍数的放大，这种解法实现复杂，且效率低下。&lt;/div&gt;&lt;div&gt;更高效的方式是&lt;/div&gt;" style="text;html=1;align=left;verticalAlign=middle;resizable=0;points=[];autosize=1;strokeColor=none;fillColor=none;" vertex="1" parent="1">
          <mxGeometry x="160" y="393" width="880" height="60" as="geometry" />
        </mxCell>
      </root>
    </mxGraphModel>
  </diagram>
</mxfile>
